<mxfile host="app.diagrams.net" agent="Mozilla/5.0 (Windows NT 10.0; Win64; x64) AppleWebKit/537.36 (KHTML, like Gecko) Chrome/127.0.0.0 Safari/537.36" version="24.7.7">
  <diagram name="P치gina-1" id="1zpc_F3rXB99-m3fdVgC">
    <mxGraphModel dx="854" dy="724" grid="1" gridSize="10" guides="1" tooltips="1" connect="1" arrows="1" fold="1" page="1" pageScale="1" pageWidth="1169" pageHeight="827" math="0" shadow="0">
      <root>
        <mxCell id="0" />
        <mxCell id="1" parent="0" />
        <mxCell id="goBkiVch_i-GQTJnAjTQ-1" value="administrador" style="shape=umlActor;verticalLabelPosition=bottom;verticalAlign=top;html=1;outlineConnect=0;" vertex="1" parent="1">
          <mxGeometry x="100" y="220" width="30" height="60" as="geometry" />
        </mxCell>
        <mxCell id="goBkiVch_i-GQTJnAjTQ-2" value="registro de usuario admin." style="ellipse;whiteSpace=wrap;html=1;" vertex="1" parent="1">
          <mxGeometry x="200" y="220" width="120" height="80" as="geometry" />
        </mxCell>
        <mxCell id="goBkiVch_i-GQTJnAjTQ-3" value="formulario de registro de usuario admin" style="ellipse;whiteSpace=wrap;html=1;" vertex="1" parent="1">
          <mxGeometry x="310" y="80" width="120" height="80" as="geometry" />
        </mxCell>
        <mxCell id="goBkiVch_i-GQTJnAjTQ-4" value="asignar permisos&amp;nbsp;" style="ellipse;whiteSpace=wrap;html=1;" vertex="1" parent="1">
          <mxGeometry x="525" y="80" width="120" height="80" as="geometry" />
        </mxCell>
        <mxCell id="goBkiVch_i-GQTJnAjTQ-5" value="confirmar asignaci칩n de permisos&amp;nbsp;" style="ellipse;whiteSpace=wrap;html=1;" vertex="1" parent="1">
          <mxGeometry x="750" y="80" width="120" height="80" as="geometry" />
        </mxCell>
        <mxCell id="goBkiVch_i-GQTJnAjTQ-6" value="validaci칩n de los datos de usuario" style="ellipse;whiteSpace=wrap;html=1;" vertex="1" parent="1">
          <mxGeometry x="480" y="230" width="120" height="80" as="geometry" />
        </mxCell>
        <mxCell id="goBkiVch_i-GQTJnAjTQ-7" value="notificaci칩n email admin" style="ellipse;whiteSpace=wrap;html=1;" vertex="1" parent="1">
          <mxGeometry x="640" y="230" width="120" height="80" as="geometry" />
        </mxCell>
        <mxCell id="goBkiVch_i-GQTJnAjTQ-8" value="guardar datos en el sistema" style="ellipse;whiteSpace=wrap;html=1;" vertex="1" parent="1">
          <mxGeometry x="670" y="360" width="120" height="80" as="geometry" />
        </mxCell>
        <mxCell id="goBkiVch_i-GQTJnAjTQ-10" value="sistema" style="shape=umlActor;verticalLabelPosition=bottom;verticalAlign=top;html=1;outlineConnect=0;" vertex="1" parent="1">
          <mxGeometry x="585" y="360" width="30" height="60" as="geometry" />
        </mxCell>
        <mxCell id="goBkiVch_i-GQTJnAjTQ-11" value="mostrar resumen de nuevo usuario" style="ellipse;whiteSpace=wrap;html=1;" vertex="1" parent="1">
          <mxGeometry x="920" y="220" width="120" height="80" as="geometry" />
        </mxCell>
        <mxCell id="goBkiVch_i-GQTJnAjTQ-12" value="extend" style="endArrow=classic;html=1;rounded=0;dashed=1;strokeColor=default;align=center;verticalAlign=middle;fontFamily=Helvetica;fontSize=11;fontColor=default;labelBackgroundColor=default;exitX=1;exitY=0.5;exitDx=0;exitDy=0;entryX=0;entryY=0.5;entryDx=0;entryDy=0;" edge="1" parent="1" source="goBkiVch_i-GQTJnAjTQ-3" target="goBkiVch_i-GQTJnAjTQ-4">
          <mxGeometry width="50" height="50" relative="1" as="geometry">
            <mxPoint x="410" y="490" as="sourcePoint" />
            <mxPoint x="550" y="530" as="targetPoint" />
          </mxGeometry>
        </mxCell>
        <mxCell id="goBkiVch_i-GQTJnAjTQ-13" value="extend" style="endArrow=classic;html=1;rounded=0;dashed=1;strokeColor=default;align=center;verticalAlign=middle;fontFamily=Helvetica;fontSize=11;fontColor=default;labelBackgroundColor=default;exitX=0.958;exitY=0.5;exitDx=0;exitDy=0;entryX=0;entryY=0.5;entryDx=0;entryDy=0;exitPerimeter=0;" edge="1" parent="1" source="goBkiVch_i-GQTJnAjTQ-4" target="goBkiVch_i-GQTJnAjTQ-5">
          <mxGeometry width="50" height="50" relative="1" as="geometry">
            <mxPoint x="585" y="190" as="sourcePoint" />
            <mxPoint x="749" y="246" as="targetPoint" />
          </mxGeometry>
        </mxCell>
        <mxCell id="goBkiVch_i-GQTJnAjTQ-14" value="extend" style="endArrow=classic;html=1;rounded=0;dashed=1;strokeColor=default;align=center;verticalAlign=middle;fontFamily=Helvetica;fontSize=11;fontColor=default;labelBackgroundColor=default;entryX=0.367;entryY=0.075;entryDx=0;entryDy=0;entryPerimeter=0;exitX=0.925;exitY=0.775;exitDx=0;exitDy=0;exitPerimeter=0;" edge="1" parent="1" source="goBkiVch_i-GQTJnAjTQ-5" target="goBkiVch_i-GQTJnAjTQ-11">
          <mxGeometry width="50" height="50" relative="1" as="geometry">
            <mxPoint x="880" y="120" as="sourcePoint" />
            <mxPoint x="1034" y="186" as="targetPoint" />
          </mxGeometry>
        </mxCell>
        <mxCell id="goBkiVch_i-GQTJnAjTQ-15" value="include" style="endArrow=classic;html=1;rounded=0;dashed=1;strokeColor=default;align=center;verticalAlign=middle;fontFamily=Helvetica;fontSize=11;fontColor=default;labelBackgroundColor=default;entryX=0;entryY=0.588;entryDx=0;entryDy=0;exitX=0.983;exitY=0.688;exitDx=0;exitDy=0;exitPerimeter=0;entryPerimeter=0;" edge="1" parent="1" source="goBkiVch_i-GQTJnAjTQ-2" target="goBkiVch_i-GQTJnAjTQ-6">
          <mxGeometry width="50" height="50" relative="1" as="geometry">
            <mxPoint x="421" y="222" as="sourcePoint" />
            <mxPoint x="585" y="278" as="targetPoint" />
          </mxGeometry>
        </mxCell>
        <mxCell id="goBkiVch_i-GQTJnAjTQ-17" value="include" style="endArrow=classic;html=1;rounded=0;dashed=1;strokeColor=default;align=center;verticalAlign=middle;fontFamily=Helvetica;fontSize=11;fontColor=default;labelBackgroundColor=default;exitX=0.4;exitY=1.013;exitDx=0;exitDy=0;entryX=1;entryY=0.375;entryDx=0;entryDy=0;exitPerimeter=0;entryPerimeter=0;" edge="1" parent="1" source="goBkiVch_i-GQTJnAjTQ-11" target="goBkiVch_i-GQTJnAjTQ-8">
          <mxGeometry width="50" height="50" relative="1" as="geometry">
            <mxPoint x="817" y="430" as="sourcePoint" />
            <mxPoint x="880" y="461" as="targetPoint" />
          </mxGeometry>
        </mxCell>
        <mxCell id="goBkiVch_i-GQTJnAjTQ-18" value="include" style="endArrow=classic;html=1;rounded=0;dashed=1;strokeColor=default;align=center;verticalAlign=middle;fontFamily=Helvetica;fontSize=11;fontColor=default;labelBackgroundColor=default;exitX=0.025;exitY=0.6;exitDx=0;exitDy=0;entryX=0.992;entryY=0.425;entryDx=0;entryDy=0;exitPerimeter=0;entryPerimeter=0;" edge="1" parent="1" source="goBkiVch_i-GQTJnAjTQ-11" target="goBkiVch_i-GQTJnAjTQ-7">
          <mxGeometry width="50" height="50" relative="1" as="geometry">
            <mxPoint x="439" y="241" as="sourcePoint" />
            <mxPoint x="502" y="272" as="targetPoint" />
          </mxGeometry>
        </mxCell>
        <mxCell id="goBkiVch_i-GQTJnAjTQ-20" value="extend" style="endArrow=classic;html=1;rounded=0;dashed=1;strokeColor=default;align=center;verticalAlign=middle;fontFamily=Helvetica;fontSize=11;fontColor=default;labelBackgroundColor=default;exitX=0.567;exitY=0.013;exitDx=0;exitDy=0;exitPerimeter=0;" edge="1" parent="1" source="goBkiVch_i-GQTJnAjTQ-2" target="goBkiVch_i-GQTJnAjTQ-3">
          <mxGeometry width="50" height="50" relative="1" as="geometry">
            <mxPoint x="440" y="130" as="sourcePoint" />
            <mxPoint x="535" y="130" as="targetPoint" />
          </mxGeometry>
        </mxCell>
        <mxCell id="goBkiVch_i-GQTJnAjTQ-21" value="" style="endArrow=none;html=1;rounded=0;entryX=0;entryY=0.413;entryDx=0;entryDy=0;entryPerimeter=0;" edge="1" parent="1" source="goBkiVch_i-GQTJnAjTQ-1" target="goBkiVch_i-GQTJnAjTQ-2">
          <mxGeometry width="50" height="50" relative="1" as="geometry">
            <mxPoint x="360" y="340" as="sourcePoint" />
            <mxPoint x="410" y="290" as="targetPoint" />
          </mxGeometry>
        </mxCell>
        <mxCell id="goBkiVch_i-GQTJnAjTQ-22" value="" style="endArrow=none;html=1;rounded=0;entryX=0;entryY=0.5;entryDx=0;entryDy=0;" edge="1" parent="1" target="goBkiVch_i-GQTJnAjTQ-8">
          <mxGeometry width="50" height="50" relative="1" as="geometry">
            <mxPoint x="610" y="400" as="sourcePoint" />
            <mxPoint x="710" y="290" as="targetPoint" />
          </mxGeometry>
        </mxCell>
      </root>
    </mxGraphModel>
  </diagram>
</mxfile>
